<?xml version="1.0" standalone="no"?>
<!DOCTYPE svg PUBLIC "-//W3C//DTD SVG 20010904//EN"
 "http://www.w3.org/TR/2001/REC-SVG-20010904/DTD/svg10.dtd">
<svg version="1.0" xmlns="http://www.w3.org/2000/svg"
 width="500.000000pt" height="500.000000pt" viewBox="0 0 500.000000 500.000000"
 preserveAspectRatio="xMidYMid meet">

<g transform="translate(0.000000,500.000000) scale(0.100000,-0.100000)"
fill="#000000" stroke="none">
<path d="M3195 4539 c32 -13 60 -18 80 -15 l30 6 -30 -20 c-38 -25 -80 -25
-127 -1 -25 12 -39 15 -41 7 -3 -8 -8 -7 -18 2 -7 6 -19 12 -26 12 -22 0 -14
-39 12 -62 l25 -22 -22 -13 c-37 -20 -89 -16 -117 10 l-25 22 20 -35 c16 -28
28 -36 60 -41 l39 -6 -35 -2 -35 -2 25 -14 c21 -12 22 -14 6 -15 -22 0 -128
58 -139 77 -4 7 -15 13 -22 13 -10 0 -15 10 -15 28 -1 24 -2 25 -11 8 -11 -18
-8 -63 7 -100 6 -16 5 -17 -14 -7 -12 7 -22 19 -22 28 0 9 -2 14 -5 11 -8 -7
22 -194 35 -218 13 -24 6 -25 -51 -5 -24 9 -54 16 -67 18 -12 1 -30 9 -39 19
-20 22 -41 24 -23 3 20 -24 7 -27 -34 -10 -48 20 -71 14 -30 -8 17 -9 37 -24
45 -33 9 -11 9 -15 2 -10 -7 4 -13 5 -13 2 0 -2 16 -14 36 -26 46 -29 37 -37
-13 -12 -64 33 -191 72 -231 71 -44 -1 -33 -6 76 -34 59 -15 87 -28 98 -44 16
-22 16 -22 -20 -16 -31 6 -35 5 -30 -9 3 -9 11 -16 18 -16 6 0 4 -5 -4 -10
-10 -6 -21 -3 -35 10 -14 13 -35 20 -61 20 -29 0 -35 -3 -24 -10 11 -8 7 -9
-15 -4 -16 3 -43 15 -58 26 -16 11 -31 18 -33 15 -3 -3 9 -15 26 -27 37 -26
25 -42 -25 -34 -29 4 -30 4 -5 -7 15 -7 20 -13 13 -16 -26 -10 -12 -23 25 -23
25 0 50 -9 73 -25 36 -27 114 -148 98 -153 -5 -2 -26 7 -46 20 -31 18 -53 23
-116 24 -65 1 -76 -1 -65 -12 7 -8 40 -17 73 -22 45 -6 73 -17 113 -46 53 -39
68 -62 32 -51 -16 5 -19 3 -13 -12 4 -10 13 -24 21 -32 12 -12 7 -18 -34 -40
-42 -23 -45 -26 -23 -29 41 -6 45 -20 13 -53 -29 -30 -29 -31 -9 -46 23 -17
76 -13 121 8 16 8 42 34 59 59 24 36 174 193 163 171 -2 -3 -19 -37 -39 -76
-68 -134 -84 -184 -84 -265 0 -70 4 -83 49 -173 26 -53 70 -125 97 -160 27
-34 49 -69 49 -77 0 -8 42 -60 94 -114 64 -67 92 -104 89 -115 -10 -28 -24
-40 -40 -34 -38 15 23 -87 76 -127 18 -14 22 -22 14 -27 -6 -5 -11 -15 -11
-23 3 -44 -3 -70 -16 -70 -10 0 -12 -7 -8 -22 5 -20 3 -21 -39 -13 -24 4 -74
10 -110 14 -85 8 -149 49 -216 137 -12 16 -38 47 -58 69 -20 22 -58 85 -85
140 -61 125 -110 199 -110 168 0 -35 -35 -17 -58 30 -35 70 -45 126 -46 264
-1 100 -4 129 -13 120 -14 -15 -94 -161 -113 -207 -8 -19 -26 -45 -40 -58 -33
-30 -122 -82 -185 -107 -37 -15 -49 -25 -47 -39 2 -11 -29 -50 -90 -109 -103
-102 -148 -157 -148 -182 0 -9 -10 -31 -22 -48 -28 -40 -42 -126 -39 -251 3
-98 3 -98 -29 -131 -35 -36 -39 -65 -20 -135 13 -50 40 -112 51 -120 12 -8 28
-57 22 -64 -4 -3 -21 -4 -39 0 -20 4 -40 0 -55 -9 -41 -26 -86 6 -130 93 -13
25 -56 76 -96 113 -87 83 -98 109 -94 237 2 86 5 98 31 133 16 22 38 46 50 54
11 8 36 45 55 83 38 75 111 154 257 276 73 61 95 74 140 82 29 5 82 15 117 22
68 12 191 57 191 69 0 14 -49 34 -69 28 -12 -3 -30 3 -43 13 -30 23 -48 28
-144 35 -67 6 -96 3 -160 -15 -129 -36 -167 -51 -199 -77 l-30 -25 52 7 c54 7
83 -8 37 -19 -41 -11 -132 -103 -144 -146 -6 -21 -31 -68 -57 -106 -57 -85
-98 -175 -108 -234 -4 -25 -10 -49 -12 -54 -8 -13 -23 16 -23 47 0 15 -4 27
-10 27 -15 0 -12 -134 4 -210 8 -36 24 -92 36 -125 12 -33 23 -66 24 -73 1 -7
33 -54 70 -104 37 -49 65 -92 62 -95 -8 -8 -76 46 -83 66 -4 9 -30 41 -59 72
-120 127 -194 280 -194 398 0 68 32 170 71 226 15 22 35 64 44 93 9 29 34 79
56 111 21 32 39 61 39 65 0 3 -11 6 -24 6 -29 0 -126 -71 -184 -134 -48 -52
-51 -52 -21 -2 l21 36 -65 0 c-36 0 -78 5 -93 10 -37 14 -42 5 -7 -15 l28 -16
-30 6 c-29 6 -29 6 -11 -14 11 -12 17 -23 15 -26 -3 -2 -45 2 -94 10 -112 18
-116 18 -109 0 8 -19 0 -19 -43 2 -30 14 -36 14 -44 2 -7 -10 1 -23 28 -46 47
-43 31 -42 -42 2 -73 44 -96 41 -29 -4 31 -22 40 -32 25 -28 l-23 6 23 -26
c17 -18 20 -27 12 -30 -18 -6 -16 -28 2 -43 30 -25 5 -22 -40 5 l-46 27 30
-43 c17 -23 29 -44 26 -47 -2 -3 -34 14 -70 38 -49 32 -71 41 -90 36 -14 -4
-25 -11 -25 -16 0 -15 -27 -12 -63 6 -31 16 -31 16 13 -34 75 -83 77 -87 57
-79 -20 7 -23 -13 -5 -31 22 -22 0 -24 -48 -3 -26 12 -49 20 -51 18 -2 -2 14
-12 36 -22 21 -9 56 -35 78 -58 21 -22 31 -37 23 -33 -8 4 -2 -3 14 -15 16
-13 41 -34 55 -46 13 -13 39 -33 58 -44 34 -22 43 -39 19 -39 -8 0 -23 -3 -33
-6 -12 -4 -14 -3 -6 3 9 6 4 12 -17 20 -17 6 -30 8 -30 3 0 -4 -9 -6 -19 -3
-11 3 -27 1 -36 -4 -13 -8 -8 -13 28 -27 58 -22 75 -41 50 -55 -12 -6 -14 -13
-8 -19 15 -14 147 -53 207 -61 48 -7 50 -8 25 -16 -50 -14 -111 3 -238 64 -98
47 -117 54 -89 31 19 -16 69 -43 110 -61 41 -17 77 -33 80 -36 5 -6 -43 2 -75
12 -11 4 -3 -4 18 -18 53 -34 53 -35 5 -27 -25 5 -44 5 -46 -1 -2 -5 -11 -9
-20 -9 -14 -1 -13 -4 6 -19 30 -26 28 -31 -10 -31 -21 0 -28 3 -20 8 9 6 5 12
-13 20 -39 18 -67 14 -30 -4 30 -15 29 -15 -22 -9 -31 3 -54 1 -58 -5 -3 -6
-11 -7 -17 -4 -6 4 -5 10 3 15 8 5 9 9 3 9 -5 0 -19 -6 -29 -14 -18 -13 -14
-16 50 -35 84 -25 119 -45 63 -35 -21 3 -54 3 -74 -1 l-36 -6 23 -25 c24 -26
20 -31 -11 -14 -16 8 -18 8 -14 -5 8 -19 9 -19 -59 4 -32 10 -57 17 -57 16 0
-7 90 -55 104 -55 8 0 18 -4 21 -10 8 -13 -50 -2 -101 20 -22 9 -58 32 -79 51
-37 32 -40 25 -6 -15 15 -18 15 -18 -6 -12 -18 6 -20 4 -16 -13 4 -16 1 -19
-18 -14 -13 4 -32 15 -43 24 -10 10 -23 16 -27 13 -9 -5 -12 -522 -3 -559 6
-23 10 -25 40 -19 22 4 34 2 34 -5 0 -6 -15 -11 -34 -11 -26 0 -36 -5 -41 -21
-4 -11 -5 -23 -2 -25 3 -3 42 0 88 6 83 12 139 4 139 -18 0 -14 189 23 240 46
54 25 120 38 120 25 0 -6 -19 -17 -42 -26 -62 -25 -42 -29 37 -7 39 10 93 23
120 30 28 6 66 23 85 39 40 32 70 45 70 31 0 -6 -4 -10 -10 -10 -5 0 -10 -4
-10 -10 0 -43 148 147 174 223 10 30 16 81 16 137 0 58 4 91 12 96 8 5 44 -27
100 -87 93 -100 209 -279 229 -353 6 -23 33 -71 60 -108 42 -57 54 -82 75
-167 33 -133 54 -180 99 -220 51 -45 99 -63 154 -60 125 7 187 1 251 -25 62
-25 82 -38 153 -97 62 -51 140 -92 218 -114 43 -13 79 -19 79 -16 0 16 -57 68
-88 80 -18 8 -35 18 -39 24 -3 6 -1 7 5 3 7 -4 12 -2 12 3 0 6 -9 11 -21 11
-12 0 -17 4 -14 11 4 6 12 8 19 6 6 -3 20 1 31 9 10 8 13 14 6 14 -7 0 -9 4
-6 10 3 5 -3 10 -14 10 -34 0 -106 68 -127 120 -8 19 -34 55 -58 80 -37 38
-48 60 -70 135 -14 50 -32 140 -40 200 -15 109 -14 110 9 163 27 59 32 60 130
37 102 -25 234 -16 444 30 103 22 120 18 155 -34 30 -45 75 -71 122 -71 15 0
45 -9 68 -19 65 -30 175 -69 257 -90 41 -11 87 -25 102 -30 50 -19 137 -84
156 -117 11 -18 37 -44 58 -57 45 -28 94 -82 135 -146 30 -49 38 -122 18 -190
-12 -42 -6 -50 18 -28 17 16 21 13 73 -35 38 -35 43 -43 17 -24 -35 25 -37 25
-43 6 -9 -27 -51 -27 -60 0 -9 27 -25 15 -25 -17 l0 -26 -22 21 c-16 14 -39
22 -72 24 -59 4 -67 17 -25 42 17 10 28 20 25 23 -10 11 -65 -19 -71 -38 -7
-21 -27 -24 -56 -9 -29 16 -23 1 13 -30 17 -16 49 -31 71 -34 21 -4 53 -14 69
-22 28 -15 29 -17 23 -64 -4 -26 -2 -64 4 -85 9 -34 8 -39 -25 -73 -31 -33
-35 -35 -45 -19 -13 22 -26 22 -34 -2 -14 -46 42 -101 102 -101 25 1 93 49 93
66 0 4 7 12 16 18 8 7 18 32 21 56 3 25 14 54 24 65 9 11 19 36 21 55 3 32 6
35 33 34 57 -3 104 15 120 46 20 38 19 48 -6 100 -21 43 -21 51 -3 152 7 42
-7 54 -91 72 -73 17 -93 57 -109 221 -11 116 -14 126 -41 155 -16 16 -39 30
-51 30 -12 0 -44 18 -70 41 -51 42 -123 84 -131 76 -2 -3 3 -17 13 -32 18 -27
17 -27 -1 -22 -11 3 -39 9 -63 12 -42 7 -43 6 -30 -14 7 -12 32 -29 56 -38 23
-9 45 -20 49 -26 4 -6 1 -7 -7 -2 -7 4 -26 9 -41 11 -43 5 -130 53 -164 89
-29 32 -104 65 -148 65 -12 0 -46 15 -77 34 -30 18 -73 37 -95 41 -66 11 -85
44 -47 78 23 21 32 21 32 1 0 -30 104 -57 138 -35 29 18 -76 75 -129 69 -19
-2 -25 2 -27 21 -6 38 7 71 32 82 18 9 33 6 69 -10 25 -12 52 -21 60 -21 8 0
32 -14 53 -31 l38 -30 19 25 c22 31 72 34 157 11 188 -51 334 -89 390 -101
124 -27 232 -79 288 -138 18 -19 49 -40 70 -47 20 -6 45 -19 56 -28 48 -42
185 -249 224 -340 l15 -36 8 34 c8 40 2 60 -48 149 -20 35 -37 78 -38 93 l-3
29 34 -21 33 -20 -44 96 c-31 67 -50 123 -59 181 -14 90 -27 114 -59 114 -40
0 -220 101 -262 147 l-40 45 -12 -32 c-10 -27 -9 -34 8 -51 11 -11 27 -18 34
-15 19 7 28 -10 21 -38 -4 -18 -14 -25 -41 -28 -30 -3 -42 3 -95 50 -33 29
-60 51 -60 47 0 -20 54 -107 76 -122 41 -29 89 -77 86 -86 -1 -5 2 -6 7 -3 5
3 14 -1 21 -9 11 -13 10 -14 -5 -9 -13 5 -16 4 -11 -4 11 -19 -6 -15 -105 27
-52 21 -107 41 -124 45 -38 10 -65 34 -65 59 0 11 16 35 36 54 33 31 36 37 25
59 -6 14 -11 26 -11 28 0 1 14 1 30 -2 23 -3 30 0 30 12 0 40 70 55 135 30 18
-7 18 -6 -3 30 -36 60 -140 194 -209 266 -63 67 -63 68 -74 147 -7 55 -7 97
-1 134 19 101 -17 204 -114 325 -78 97 -86 115 -75 165 12 51 87 237 107 264
15 20 16 20 34 -5 11 -14 29 -38 42 -54 27 -35 86 -62 154 -71 42 -6 62 -16
115 -62 57 -48 145 -111 221 -157 34 -20 64 -77 73 -138 9 -61 22 -77 67 -85
42 -6 154 22 188 47 11 8 28 38 39 67 10 29 28 65 40 82 22 30 28 61 12 61 -5
0 -12 -11 -15 -25 -12 -45 -66 -24 -71 28 -1 12 -3 40 -4 63 0 22 -8 49 -16
60 -15 18 -15 18 -9 -9 3 -15 3 -42 0 -60 -5 -26 -13 -36 -41 -46 -38 -14 -55
-38 -65 -91 l-6 -35 -22 42 c-12 23 -22 52 -22 63 0 12 -4 18 -10 15 -5 -3
-10 -16 -10 -28 0 -18 -2 -19 -10 -7 -17 27 -11 4 16 -56 37 -83 45 -114 30
-114 -20 0 -36 22 -36 49 0 33 -15 56 -36 56 -20 0 -51 40 -60 79 -6 27 -5 29
19 24 18 -4 24 -1 20 9 -3 7 -9 13 -13 13 -4 0 -15 20 -24 45 -18 45 -67 92
-86 80 -17 -10 -90 35 -110 68 -24 38 -25 60 -6 76 27 23 104 -38 181 -142 20
-27 31 -35 39 -27 7 7 7 17 -3 32 -11 17 -11 22 1 29 23 15 57 10 70 -11 7
-11 17 -20 21 -20 5 0 -1 12 -12 27 -12 14 -19 28 -17 30 2 3 25 -4 50 -16 25
-11 46 -18 46 -15 0 14 -127 93 -188 117 -52 21 -72 34 -72 47 0 10 -11 25
-24 33 -17 12 -25 29 -30 65 -3 27 -3 59 1 70 7 19 13 16 56 -38 26 -33 47
-64 47 -69 0 -12 49 -71 60 -71 9 0 -82 143 -113 177 -11 12 -17 29 -14 37 3
8 1 31 -4 52 -6 20 -7 53 -4 73 l8 36 23 -50 c12 -27 23 -61 23 -74 1 -13 8
-31 16 -40 9 -9 34 -45 56 -80 22 -35 42 -61 45 -58 10 10 -65 167 -83 174 -7
3 -13 15 -13 26 0 16 3 18 12 9 7 -7 22 -12 35 -12 15 0 27 -8 32 -23 5 -13
21 -41 36 -63 21 -29 26 -33 20 -14 -4 14 -13 38 -21 54 -8 16 -14 35 -14 43
0 26 -38 88 -89 146 -28 32 -51 65 -51 74 0 9 -6 24 -13 32 -14 16 -37 87 -37
112 0 8 4 20 9 27 12 19 60 -6 92 -48 13 -18 34 -45 47 -60 21 -26 22 -60 1
-60 -17 0 -9 -37 19 -81 15 -24 43 -87 62 -139 18 -52 36 -99 40 -103 4 -5 5
31 3 80 -5 71 -2 97 11 125 13 27 15 46 9 83 -11 63 -33 73 -33 15 0 -34 -3
-40 -13 -31 -24 19 -53 94 -39 99 7 2 1 16 -18 40 -44 56 -64 192 -32 224 9 9
0 15 -36 27 -37 13 -47 21 -48 39 -1 12 -4 25 -7 28 -3 3 1 21 9 39 15 38 19
122 5 143 -5 9 -10 0 -14 -28 -7 -54 -23 -73 -49 -59 -11 6 -26 8 -34 5 -7 -3
-13 0 -11 5 1 6 -17 17 -39 24 -23 7 -57 24 -76 38 -62 48 -118 66 -193 65
-46 -1 -80 4 -100 14 -48 25 -174 48 -262 47 -45 0 -103 2 -129 5 l-49 6 50
-21z m263 -88 c13 -7 22 -15 19 -17 -8 -8 -47 -13 -47 -6 0 4 -8 8 -17 9 -64
4 -139 16 -147 23 -14 14 166 6 192 -9z m71 -35 c-3 -3 -11 5 -18 17 -13 21
-12 21 5 5 10 -10 16 -20 13 -22z m-296 -3 c-7 -2 -21 -2 -30 0 -10 3 -4 5 12
5 17 0 24 -2 18 -5z m-4 -29 c17 -4 31 -10 31 -15 0 -9 -35 -15 -123 -23 l-58
-5 43 24 c47 26 60 28 107 19z m566 -54 c8 -13 -15 -13 -35 0 -12 8 -11 10 7
10 12 0 25 -4 28 -10z m-504 -31 c-13 -5 -36 -18 -51 -29 -32 -22 -40 -25 -40
-10 0 16 62 50 90 49 l25 0 -24 -10z m317 -60 c12 -18 11 -24 -8 -44 -29 -31
-36 -91 -16 -139 9 -22 15 -41 13 -43 -8 -8 -64 -4 -112 7 -81 18 -178 -9
-223 -62 -13 -15 -38 -30 -55 -34 -43 -9 -58 -20 -104 -79 -22 -28 -55 -66
-73 -85 -18 -19 -35 -42 -39 -51 -15 -42 -117 -153 -131 -144 -14 8 -1 65 23
99 23 32 66 134 67 155 0 8 -7 11 -20 8 -10 -3 -24 1 -29 7 -8 9 6 27 50 67
34 30 75 63 93 74 17 11 45 34 61 51 17 17 46 42 65 55 19 13 53 42 75 65 58
60 111 84 187 84 39 1 70 6 82 15 30 22 79 19 94 -6z m431 -103 c29 -15 59
-46 45 -46 -9 0 -84 50 -84 56 0 7 11 4 39 -10z m-133 -89 c2 -74 5 -88 14
-82 6 4 10 -5 8 -24 -1 -17 -7 -32 -14 -35 -12 -4 -17 -59 -8 -88 3 -10 12
-18 20 -18 8 0 14 -4 14 -10 0 -5 -11 -10 -25 -10 -18 0 -23 -4 -19 -15 6 -15
-7 -21 -20 -8 -4 4 -17 8 -28 8 -15 0 -24 9 -29 27 -4 15 -25 44 -48 66 -28
26 -41 47 -41 65 0 15 4 27 9 27 5 0 42 30 81 66 40 36 75 63 78 59 4 -4 7
-17 8 -28z m-97 -21 c-6 -13 -25 -34 -43 -47 -26 -19 -29 -20 -17 -3 19 24 64
74 68 74 1 0 -2 -11 -8 -24z m-1179 -31 c17 -9 30 -18 30 -20 0 -13 -40 -3
-61 15 -29 23 -10 26 31 5z m1060 -65 c-8 -5 -22 -10 -30 -10 -13 0 -13 1 0
10 8 5 22 10 30 10 13 0 13 -1 0 -10z m45 -279 c-5 -13 -9 -12 -26 9 -20 26
-18 62 4 89 10 11 13 4 20 -34 4 -26 5 -55 2 -64z m158 7 c-6 -11 -31 -10 -37
1 -3 5 5 8 18 7 13 0 22 -4 19 -8z m34 -14 c-3 -3 -12 -4 -19 -1 -8 3 -5 6 6
6 11 1 17 -2 13 -5z m-417 -23 c0 -23 -41 -99 -67 -122 -15 -15 -37 -44 -48
-65 -11 -21 -31 -49 -44 -62 l-24 -24 6 36 c6 38 84 175 125 219 25 26 52 36
52 18z m420 -159 c0 -7 -4 -10 -10 -7 -5 3 -10 -1 -10 -9 0 -30 -17 -16 -29
24 -16 55 -4 71 26 34 12 -16 23 -35 23 -42z m30 -63 c0 -5 -4 -9 -10 -9 -5 0
-10 7 -10 16 0 8 5 12 10 9 6 -3 10 -10 10 -16z m143 -139 c16 -22 24 -40 18
-40 -10 0 -61 61 -61 73 0 17 17 3 43 -33z m-1903 -183 c-19 -33 -21 -47 -15
-105 4 -37 13 -93 20 -125 8 -33 11 -65 8 -73 -3 -8 0 -14 6 -14 16 0 14 -37
-5 -100 l-16 -55 -22 26 c-11 14 -26 35 -33 45 -11 19 -11 18 -18 -1 -22 -64
-28 -73 -41 -68 -9 3 -14 20 -14 48 0 24 -5 45 -12 47 -9 3 -9 15 0 50 7 26
12 58 12 73 0 44 72 238 109 294 35 53 36 54 39 26 2 -16 -6 -45 -18 -68z
m1873 11 c12 -9 14 -17 7 -28 -8 -13 -12 -11 -30 7 -11 12 -20 25 -20 28 0 9
26 5 43 -7z m-1699 -78 c20 -38 31 -70 26 -70 -8 0 -70 119 -70 135 0 16 13
-3 44 -65z m2031 -136 c-27 -20 -39 -5 -13 16 14 11 24 14 27 8 2 -6 -4 -17
-14 -24z m-24 -67 c-10 -9 -11 -8 -5 6 3 10 9 15 12 12 3 -3 0 -11 -7 -18z
m-2088 -303 c3 -18 9 -43 13 -58 5 -23 3 -26 -18 -26 -18 0 -28 10 -46 48 -21
44 -30 130 -16 145 10 9 59 -73 67 -109z m770 -41 c3 -5 1 -18 -4 -30 -10 -27
-53 -32 -63 -8 -3 8 -13 15 -22 15 -40 0 5 17 78 29 4 0 9 -2 11 -6z m-674
-80 c-1 -67 -2 -73 -10 -43 -8 32 -3 120 7 120 2 0 4 -35 3 -77z m41 36 c14
-25 9 -41 -13 -45 -13 -2 -17 5 -17 32 0 38 14 44 30 13z m-215 -103 c39 -36
67 -67 64 -71 -14 -13 -62 9 -106 49 -37 34 -44 46 -39 64 4 12 8 22 10 22 1
0 33 -29 71 -64z m876 -160 c-11 -25 -22 -46 -24 -46 -9 0 7 67 21 83 24 27
25 13 3 -37z m-440 -106 c41 -23 86 -53 101 -68 26 -25 27 -30 16 -65 -12 -40
-28 -50 -28 -17 0 26 -25 26 -47 0 -13 -15 -19 -17 -26 -7 -5 7 -5 -10 -2 -39
5 -40 3 -53 -8 -57 -10 -4 -18 3 -25 21 -10 29 -32 159 -32 193 0 12 -9 34
-21 50 -11 16 -16 29 -11 29 5 0 42 -18 83 -40z m-396 10 c3 -5 29 -10 57 -10
45 0 49 -2 37 -16 -10 -13 -10 -17 2 -25 8 -5 17 -9 21 -9 4 0 17 -19 29 -41
l21 -42 -29 20 c-15 11 -33 18 -40 16 -7 -2 -27 2 -45 10 -18 9 -57 21 -85 27
-43 10 -53 16 -53 32 0 36 68 66 85 38z m276 -52 c10 -18 9 -20 -6 -15 -9 4
-19 7 -21 7 -2 0 -4 7 -4 15 0 22 18 18 31 -7z m349 -197 c0 -5 3 -17 6 -25 5
-12 2 -15 -10 -10 -17 7 -22 44 -6 44 6 0 10 -4 10 -9z m1305 -76 c17 -7 25
-14 19 -14 -24 -2 -23 -41 1 -57 27 -17 47 -11 38 11 -10 27 7 16 27 -17 21
-35 27 -78 10 -78 -6 0 -15 11 -20 25 -11 28 -24 34 -16 8 6 -21 -29 -67 -44
-58 -5 3 -15 15 -21 27 -8 15 -8 19 0 14 19 -12 12 11 -12 41 -28 32 -45 113
-25 113 7 -1 27 -7 43 -15z m-1265 -60 c11 -13 10 -14 -4 -9 -9 3 -16 10 -16
15 0 13 6 11 20 -6z m-1207 -45 c81 -74 114 -131 138 -241 15 -70 19 -111 14
-161 -6 -64 -5 -67 17 -70 13 -2 23 -10 23 -18 0 -16 -1 -16 -80 9 -58 18
-131 85 -159 145 -50 105 -62 386 -17 386 5 0 34 -23 64 -50z m-1540 33 c-7
-2 -19 -2 -25 0 -7 3 -2 5 12 5 14 0 19 -2 13 -5z m1350 -29 c20 -7 21 -24 6
-77 -8 -31 -14 -37 -27 -32 -9 4 -24 8 -32 9 -31 4 -58 27 -69 57 -14 41 -14
46 1 31 18 -18 43 -15 63 8 10 11 23 18 29 15 6 -3 19 -8 29 -11z m1468 -77
c30 -13 63 -27 74 -31 19 -8 19 -8 -5 -18 -31 -11 -93 14 -115 48 -19 29 -20
29 46 1z m-1550 -54 c13 -16 12 -17 -3 -4 -10 7 -18 15 -18 17 0 8 8 3 21 -13z
m1911 -73 c51 -24 84 -48 76 -55 -2 -3 -45 15 -94 40 -61 31 -79 44 -57 41 17
-3 51 -15 75 -26z m-3239 3 c-7 -2 -19 -2 -25 0 -7 3 -2 5 12 5 14 0 19 -2 13
-5z m337 -7 c0 -10 -129 -44 -148 -39 -12 3 -29 0 -37 -7 -10 -9 -15 -9 -15
-1 0 6 -12 11 -27 11 -40 0 -19 12 45 26 54 12 182 19 182 10z m3180 -33 c10
-12 24 -23 31 -25 7 -2 10 -11 7 -20 -7 -18 -59 -13 -55 6 1 7 -9 10 -27 8
-50 -5 -76 6 -76 32 0 22 3 24 50 22 36 -2 56 -8 70 -23z m-1652 -436 c26 -24
29 -42 5 -32 -10 4 -47 12 -83 17 -85 14 -108 31 -54 39 56 10 106 1 132 -24z
m236 -78 c-2 -4 11 -18 28 -33 41 -33 29 -34 -22 0 -21 14 -43 23 -48 20 -6
-3 -12 1 -16 9 -3 8 -11 15 -18 15 -19 0 -50 39 -44 56 4 10 20 5 65 -23 33
-21 58 -40 55 -44z m-75 -13 c10 -12 8 -13 -8 -9 -12 3 -18 9 -15 14 7 12 10
11 23 -5z"/>
<path d="M2095 2727 c-4 -10 -5 -21 -1 -24 10 -10 18 4 13 24 -4 17 -4 17 -12
0z"/>
<path d="M2378 4223 c6 -2 18 -2 25 0 6 3 1 5 -13 5 -14 0 -19 -2 -12 -5z"/>
<path d="M2438 3468 c-15 -30 -13 -124 4 -156 7 -14 29 -41 48 -60 30 -30 32
-36 18 -46 -12 -9 -15 -24 -13 -58 4 -54 -1 -44 82 -169 67 -102 98 -137 110
-125 7 7 -53 135 -68 146 -11 9 -20 49 -24 108 -1 31 -14 91 -28 132 -13 41
-32 100 -42 130 -18 60 -51 120 -65 120 -5 0 -15 -10 -22 -22z"/>
<path d="M4320 3261 c10 -21 30 -37 30 -26 0 14 -21 45 -31 45 -6 0 -6 -7 1
-19z"/>
<path d="M2730 3162 c0 -7 7 -20 15 -28 19 -20 20 -4 0 22 -9 12 -14 14 -15 6z"/>
<path d="M4226 3146 c21 -15 30 -14 19 3 -3 6 -14 11 -23 11 -13 0 -13 -2 4
-14z"/>
<path d="M1346 2979 c-15 -17 -32 -51 -38 -75 -7 -23 -15 -41 -20 -38 -4 3 -8
-4 -8 -15 0 -10 -3 -27 -7 -37 -5 -12 -3 -15 6 -9 10 6 11 3 3 -11 -5 -11 -6
-28 -3 -38 6 -15 17 -3 59 65 45 73 52 91 52 136 0 29 -4 53 -9 53 -5 0 -21
-14 -35 -31z"/>
<path d="M365 2640 c3 -5 8 -10 11 -10 2 0 4 5 4 10 0 6 -5 10 -11 10 -5 0 -7
-4 -4 -10z"/>
<path d="M460 2310 c19 -11 42 -19 50 -19 8 0 -3 9 -25 19 -53 24 -70 24 -25
0z"/>
<path d="M222 2135 c44 -41 66 -46 42 -9 -9 14 -23 23 -30 20 -8 -3 -14 -1
-14 3 0 5 -8 12 -17 15 -10 3 -1 -10 19 -29z"/>
<path d="M288 2123 c7 -3 16 -2 19 1 4 3 -2 6 -13 5 -11 0 -14 -3 -6 -6z"/>
<path d="M3219 1654 c25 -18 104 -44 130 -44 22 1 -8 18 -73 42 -64 23 -89 24
-57 2z"/>
<path d="M2537 994 c-4 -4 -7 -19 -7 -33 0 -19 24 -50 84 -113 46 -47 88 -92
93 -100 13 -21 72 -60 82 -54 5 3 14 -1 21 -9 7 -8 16 -12 21 -9 5 2 11 -6 15
-20 3 -13 12 -27 20 -30 8 -3 14 -11 14 -17 0 -8 -6 -7 -17 2 -16 13 -17 12
-4 -3 7 -10 17 -15 22 -12 5 3 9 1 9 -4 0 -19 52 -24 70 -7 23 21 18 55 -15
110 -23 37 -85 115 -71 88 10 -18 -19 -16 -38 2 -8 8 -18 24 -21 35 -4 11 -30
31 -62 46 -31 15 -80 49 -110 75 -29 27 -57 49 -62 49 -5 0 -16 2 -23 5 -8 3
-17 2 -21 -1z"/>
<path d="M4820 695 c-7 -8 -20 -15 -29 -16 -11 0 -9 -3 6 -9 25 -10 87 -135
79 -157 -3 -8 -22 -13 -48 -13 -24 0 -50 -5 -58 -10 -10 -6 3 -7 40 -3 102 11
127 32 94 79 -46 64 -54 81 -54 112 0 35 -10 41 -30 17z"/>
<path d="M4666 671 c-47 -6 -48 -6 -28 -24 20 -18 72 -15 72 4 0 5 10 14 23
19 20 8 20 9 2 8 -11 -1 -42 -4 -69 -7z"/>
<path d="M2558 602 c8 -5 14 -13 14 -18 1 -5 11 -25 24 -45 27 -43 66 -59 138
-58 l51 1 -52 16 c-54 18 -82 34 -44 27 14 -2 21 1 21 11 0 24 -41 52 -85 59
-22 4 -49 9 -60 11 -14 4 -16 3 -7 -4z"/>
</g>
</svg>
