<?xml version="1.0" standalone="no"?>
<!DOCTYPE svg PUBLIC "-//W3C//DTD SVG 20010904//EN"
 "http://www.w3.org/TR/2001/REC-SVG-20010904/DTD/svg10.dtd">
<svg version="1.0" xmlns="http://www.w3.org/2000/svg"
 width="512.000000pt" height="512.000000pt" viewBox="0 0 512.000000 512.000000"
 preserveAspectRatio="xMidYMid meet">

<g transform="translate(0.000000,512.000000) scale(0.100000,-0.100000)"
fill="#000000" stroke="none">
<path d="M4598 4800 l-76 -87 -69 9 c-193 25 -423 -39 -606 -167 -164 -114
-297 -285 -422 -541 -83 -170 -183 -321 -228 -346 -14 -8 -74 -12 -164 -13
-121 0 -145 3 -159 17 -16 16 -14 21 40 85 96 115 202 256 224 299 l21 41 83
7 c130 11 128 10 128 68 0 44 3 51 30 66 36 20 38 46 14 148 -8 37 -13 73 -10
80 3 7 24 18 48 24 60 16 88 36 88 64 0 33 -26 51 -72 50 -35 -1 -41 2 -57 35
-28 53 -97 128 -144 156 -94 54 -192 53 -313 -4 -46 -22 -72 -42 -98 -78 -46
-62 -70 -141 -62 -202 3 -25 7 -54 8 -65 3 -17 -18 -23 -187 -57 -226 -46
-477 -108 -560 -140 -33 -12 -71 -34 -85 -48 -15 -16 -67 -42 -130 -65 -180
-67 -290 -126 -290 -154 0 -14 29 -38 78 -68 2 -1 -17 -31 -41 -67 -84 -123
-113 -250 -74 -324 37 -70 140 -141 289 -198 l63 -24 -57 -1 c-243 -2 -566
-92 -725 -202 -69 -48 -166 -140 -194 -185 -21 -33 -21 -33 -104 -33 -180 0
-377 -78 -509 -201 -127 -118 -204 -266 -247 -469 -17 -84 -22 -141 -23 -285
0 -99 3 -220 7 -268 l9 -88 31 7 c18 3 50 15 72 26 231 115 397 442 475 938
21 131 81 190 185 182 19 -2 20 -8 16 -119 -2 -64 2 -150 9 -191 34 -210 143
-425 305 -599 62 -67 65 -74 65 -120 0 -56 -31 -177 -62 -236 -28 -56 -87
-134 -138 -182 -54 -51 -70 -84 -70 -138 0 -70 50 -156 149 -258 50 -51 107
-122 136 -170 99 -163 206 -285 285 -321 l46 -21 -4 -53 c-4 -51 -3 -54 29
-73 30 -18 51 -21 160 -21 144 0 153 5 122 69 -19 38 -58 69 -175 141 -90 55
-260 223 -307 303 -67 114 -85 179 -85 312 -1 137 -6 123 105 287 42 62 91
141 109 176 17 34 37 62 44 62 26 0 48 -40 58 -107 9 -60 8 -76 -11 -137 -14
-45 -21 -95 -21 -147 0 -105 21 -148 87 -180 26 -12 98 -58 158 -100 163 -115
370 -245 453 -285 39 -20 72 -38 72 -42 0 -4 -7 -25 -15 -47 -21 -60 -19 -131
5 -155 28 -28 50 -31 190 -28 l125 3 -1 61 c-2 119 -34 154 -438 464 -315 242
-315 243 -324 377 -7 112 11 181 89 338 72 146 109 262 109 347 0 53 6 56 68
39 54 -16 267 -49 396 -62 153 -15 462 -7 576 15 134 27 237 61 343 116 138
71 159 68 225 -37 15 -23 111 -151 213 -285 l186 -243 12 -221 13 -222 -27
-41 c-15 -22 -30 -61 -32 -85 -5 -42 -7 -45 -47 -55 -75 -19 -107 -71 -109
-179 -1 -89 17 -138 62 -165 44 -26 67 -21 115 23 82 76 98 138 151 580 23
193 42 315 52 335 43 81 3 214 -97 329 -56 64 -61 88 -24 112 23 15 32 16 77
4 70 -17 235 -97 325 -157 133 -88 242 -217 242 -285 0 -13 11 -72 25 -132 27
-121 77 -238 112 -266 13 -10 23 -27 23 -38 0 -25 -46 -82 -66 -82 -29 0 -54
-39 -54 -82 0 -37 6 -47 53 -93 58 -56 194 -132 220 -122 24 9 32 73 18 157
-6 41 -16 129 -21 195 -34 407 -124 674 -277 816 -27 26 -65 55 -84 64 -19 10
-79 59 -134 109 -213 194 -328 277 -406 296 -55 13 -69 25 -40 35 27 8 124
208 151 310 33 126 36 216 12 310 -56 216 -89 637 -62 802 13 86 42 163 70
188 17 16 20 12 61 -67 29 -54 65 -104 105 -145 34 -33 75 -81 92 -105 41 -59
122 -134 167 -152 62 -26 112 -21 146 15 16 17 33 47 39 67 24 86 6 274 -41
440 -16 55 -23 108 -24 187 -2 138 -32 250 -92 347 l-23 37 34 158 c19 87 34
159 33 160 -2 1 -36 -50 -77 -112 -41 -63 -76 -112 -78 -110 -2 2 1 58 8 125
7 66 11 122 9 123 -2 2 -38 -36 -81 -83z"/>
</g>
</svg>
